<?xml version="1.0" encoding="utf-8"?>
<!-- Generator: Adobe Illustrator 18.0.0, SVG Export Plug-In . SVG Version: 6.00 Build 0)  -->
<!DOCTYPE svg PUBLIC "-//W3C//DTD SVG 1.1//EN" "http://www.w3.org/Graphics/SVG/1.1/DTD/svg11.dtd">
<svg version="1.1" id="Layer_1" xmlns="http://www.w3.org/2000/svg" xmlns:xlink="http://www.w3.org/1999/xlink" x="0px" y="0px"
	 viewBox="0 0 436.2 421.2" enable-background="new 0 0 436.2 421.2" xml:space="preserve">
<g>
	<path fill="#2620D7" d="M218.1,210.6"/>
</g>
<g>
	<path fill-rule="evenodd" clip-rule="evenodd" fill="#2620D7" d="M181,206.1c-1.2,11.7,2,22.4,9,30.2c8.3,9.2,21.6,13.6,35.1,11.6
		c22.2-3.3,34.2-18.9,32.1-41.8c-1.9-20.2-22.4-32.2-41.1-32.2C200.7,173.9,183.4,182.3,181,206.1z"/>
	<path fill-rule="evenodd" clip-rule="evenodd" fill="#2620D7" d="M428.4,208.1L428.4,208.1C428.4,208.1,428.3,208.1,428.4,208.1
		c-0.7-0.9-3.1-4.2-7.2-9.3c-19.6-27.1-29.4-59.4-28.3-92.6c0.6-6.5,0.7-10.6,0.8-11.5v0v0c0.1-4.4-2.7-8.4-6.8-9.7
		c-2.5-0.8-28.1-8.9-63.9-13.7c-14.5-33.1-29.4-55.5-30.9-57.6c-2.5-3.6-7.1-5.2-11.3-3.9v0c0,0,0,0,0,0c-0.9,0.3-4.9,1.6-11,4
		c-31.8,10.3-65.4,9.6-96.7-1.6c-6-2.5-9.9-4-10.8-4.3c-4.1-1.5-8.8,0-11.4,3.5c-1.5,2.1-17.2,24-32.8,56.6
		c-36,3.6-61.8,10.8-64.3,11.5c-4.2,1.2-7.1,5.2-7.2,9.5v0v0c0,0.9,0,5.1,0.4,11.7c-0.1,33.4-11.1,65.2-31.4,91.5
		c-4.3,5-6.9,8.2-7.5,9c-2.7,3.4-2.7,8.4-0.2,11.9c1.5,2.1,17.5,23.8,43.7,48.7c-7.8,35.3-8.8,62.1-8.9,64.7
		c-0.1,4.4,2.7,8.4,6.8,9.7l0,0v0c0,0,0.1,0,0.1,0c1,0.3,4.9,1.6,11.2,3.2c31.8,10.4,58.6,30.7,77.3,58.2c3.2,5.3,5.4,8.7,6.1,9.6
		c0,0.1,0.1,0.1,0.1,0.2l0,0c0,0,0,0,0,0c2.4,3.6,7.1,5.2,11.2,3.9c2.5-0.8,28-9.3,59.8-26.5c31.2,18.3,56.4,27.6,58.8,28.5
		c4.1,1.5,8.8,0,11.4-3.5l0,0v0c0,0,0,0,0-0.1c0.6-0.8,3-4.2,6.5-9.6c19.7-27,47.4-46.3,79.3-55.6c6-1.4,9.8-2.4,11-2.8
		c0.1,0,0.2,0,0.2-0.1l0,0c0,0,0,0,0,0c4.2-1.2,7.1-5.1,7.1-9.5c0-2.6-0.2-29.5-6.8-65c27-24,43.7-45.1,45.3-47.2
		C430.8,216.6,430.9,211.7,428.4,208.1z M359.3,105.7c3.4,1,5.7,4.3,5.5,7.8c-0.1,1.4-0.7,11.2-3,25.8c-6.4-5.2-13.2-10.3-20.3-15.3
		c-2.2-8.4-4.7-16.5-7.4-24.2C348.5,102.5,357.9,105.3,359.3,105.7z M270.7,42.8c3.3-1.2,7.1,0.1,9,3.1c1.3,2,15.9,24.9,28.2,57.8
		c-2.3-1.2-4.7-2.4-7.1-3.5c-16.6-18.7-35.5-34.4-54.1-47.3C260.1,46.5,269.4,43.2,270.7,42.8z M162,43.9c2-2.9,5.8-4.1,9.1-2.8
		c2.4,0.9,31.9,12.5,64.5,35.4c-29.3-8.5-59.7-11-87-10.4C155.6,53.1,161.2,45,162,43.9z M80.4,101.1c2.5-0.7,33.2-8.6,72.9-9.3
		c-28.7,10.3-54.7,26.2-76.5,42.8c-1.8-14.7-2.1-24.5-2.1-25.9C74.6,105.2,77,102,80.4,101.1z M76.9,315.4c-3.4-1-5.7-4.3-5.5-7.8
		c0.1-1.4,0.7-11.2,3-25.8c6.4,5.2,13.2,10.3,20.3,15.3c2.2,8.4,4.7,16.5,7.4,24.2C87.6,318.6,78.2,315.8,76.9,315.4z M165.5,378.4
		c-3.4,1.2-7.1-0.1-9-3.1c-1.3-2-15.9-24.9-28.2-57.8c2.3,1.2,4.7,2.4,7.1,3.5c16.6,18.7,35.5,34.5,54.1,47.3
		C176,374.7,166.8,378,165.5,378.4z M274.2,377.3c-2,2.9-5.8,4.1-9.1,2.8c-2.4-0.9-31.9-12.5-64.4-35.3c29.3,8.5,59.7,10.9,87,10.4
		C280.5,368,275,376.1,274.2,377.3z M392.4,219.5c-1.3,1.6-14.1,17.2-35.1,35.4c-1.9,1.7-13.5,11.8-30.8,25.7
		c-11.7,8.9-41.4,6-38,3.2c6.1-4.5,12.4-9.2,16.1-12.1c10.9-8.5,18.5-14.6,20.8-16.4c21.8-16.1,38.3-33,46.7-42.2
		c-18.8-22.2-80-86.9-152.6-88.1l-2,0c-71.8,0-134.1,61.7-153.4,83c9.2,10.8,28.3,31.6,54,50.3c10.2,7.4,21.4,14.5,33.4,20.5
		c15.5,7.7,59.9,31.2,128.1,30.7c10-0.1,20.5-0.6,31.5-1.9c7.1-0.8,19.3-2.3,28-6.9c7.1-4.6,13.9-9.4,20.3-14.3
		c1.8,14.7,2.1,24.5,2.1,25.9c0.1,3.6-2.3,6.7-5.7,7.6c-1.8,0.5-18,4.7-41.6,7.3c-0.3,0-0.6,0.1-0.9,0.1c-2.2,0.2-4.5,0.5-6.9,0.7
		c-120.9,11.4-189.9-46.7-201.1-55c-36.6-26.9-60-57.2-61.7-59.5c-2.7-3.6-2.6-8.5,0.2-12c3.2-3.9,79.5-96.1,173.7-96.1l2.4,0
		c95.2,1.6,169.7,97.7,172.8,101.8C395.3,211.1,395.2,216,392.4,219.5z M274.1,209c0.8,27-15.6,55.6-48.6,58l-0.5,0
		c-0.3,0-0.6,0-0.9,0l-0.6,0c-1.9,0.1-3.6,0.2-5.2,0.2c-15.4,0-30.2-6.1-40.7-16.7c-10.3-10.4-15.9-24.6-15.7-39.9
		c0.3-30.7,26.3-56.6,56.8-56.6l0.5,0C255.8,154.4,273.3,182.8,274.1,209z"/>
</g>
</svg>
