<?xml version="1.0" encoding="utf-8"?>
<!-- Generator: Adobe Illustrator 18.0.0, SVG Export Plug-In . SVG Version: 6.00 Build 0)  -->
<!DOCTYPE svg PUBLIC "-//W3C//DTD SVG 1.1//EN" "http://www.w3.org/Graphics/SVG/1.1/DTD/svg11.dtd">
<svg version="1.1" id="Layer_1" xmlns="http://www.w3.org/2000/svg" xmlns:xlink="http://www.w3.org/1999/xlink" x="0px" y="0px"
	 viewBox="0 0 200 200" enable-background="new 0 0 200 200" xml:space="preserve">
<g>
	<path fill="#0000FF" d="M188.2,188.2c-3.1,3.1-8.2,3.1-11.3,0l-165-165c-3.1-3.1-3.1-8.2,0-11.3s8.2-3.1,11.3,0l165,165
		C191.3,180,191.3,185,188.2,188.2z"/>
	<g>
		<g>
			<rect x="92" y="92" transform="matrix(0.7071 0.7071 -0.7071 0.7071 100 -41.4214)" fill="#0000FF" width="16" height="16"/>
		</g>
		<g>
			<path fill="#0000FF" d="M117,94.3l71.2-71.2c3.1-3.1,3.1-8.2,0-11.3c-3.1-3.1-8.2-3.1-11.3,0L105.7,83L117,94.3z"/>
		</g>
		<g>
			<path fill="#0000FF" d="M83,105.7l-71.2,71.2c-3.1,3.1-3.1,8.2,0,11.3s8.2,3.1,11.3,0L94.3,117L83,105.7z"/>
		</g>
	</g>
</g>
</svg>
