<?xml version="1.0" encoding="utf-8"?>
<!-- Generator: Adobe Illustrator 18.0.0, SVG Export Plug-In . SVG Version: 6.00 Build 0)  -->
<!DOCTYPE svg PUBLIC "-//W3C//DTD SVG 1.1//EN" "http://www.w3.org/Graphics/SVG/1.1/DTD/svg11.dtd">
<svg version="1.1" id="Layer_1" xmlns="http://www.w3.org/2000/svg" xmlns:xlink="http://www.w3.org/1999/xlink" x="0px" y="0px"
	 viewBox="0 0 200 200" enable-background="new 0 0 200 200" xml:space="preserve">
<g>
	<path fill="#0000FF" d="M165,192.5H85c-1.7,0-3.4-0.6-4.7-1.6l-50-40c-1.8-1.4-2.8-3.6-2.8-5.9V15c0-4.1,3.4-7.5,7.5-7.5h130
		c4.1,0,7.5,3.4,7.5,7.5v170C172.5,189.1,169.1,192.5,165,192.5z M87.6,177.5h69.9v-155h-115v118.9L87.6,177.5z"/>
	<path fill="#0000FF" d="M112.5,165h-15v-32.5H55v-15h50c4.1,0,7.5,3.4,7.5,7.5V165z"/>
	<rect x="57.5" y="77.5" fill="#0000FF" width="85" height="15"/>
	<path fill="none" stroke="#0000FF" stroke-width="15" stroke-linecap="round" stroke-linejoin="round" stroke-miterlimit="10" d="
		M65,105"/>
	<path fill="none" stroke="#0000FF" stroke-width="15" stroke-linecap="round" stroke-linejoin="round" stroke-miterlimit="10" d="
		M135,105"/>
	<rect x="57.5" y="47.5" fill="#0000FF" width="85" height="15"/>
</g>
</svg>
