<?xml version="1.0" encoding="utf-8"?>
<!-- Generator: Adobe Illustrator 18.0.0, SVG Export Plug-In . SVG Version: 6.00 Build 0)  -->
<!DOCTYPE svg PUBLIC "-//W3C//DTD SVG 1.1//EN" "http://www.w3.org/Graphics/SVG/1.1/DTD/svg11.dtd">
<svg version="1.1" id="Layer_1" xmlns="http://www.w3.org/2000/svg" xmlns:xlink="http://www.w3.org/1999/xlink" x="0px" y="0px"
	 viewBox="0 0 200 200" enable-background="new 0 0 200 200" xml:space="preserve">
<g>
	<path fill="none" d="M105,79.4L116.9,90l53.4-47.5H29.7L83.1,90L95,79.4C97.9,76.9,102.1,76.9,105,79.4z"/>
	<polygon fill="none" points="94.4,100 100,105 105.6,100 100,95 	"/>
	<path fill="none" d="M100,122.5c-1.8,0-3.6-0.6-5-1.9L83.1,110l-53.4,47.5h140.5L116.9,110L105,120.6
		C103.6,121.9,101.8,122.5,100,122.5z"/>
	<g>
		<path fill="#0000FF" d="M128.2,100l-11.3,10l53.4,47.5H29.7L83.1,110l-11.3-10L5,159.4c-2.3,2.1-3.1,5.4-2,8.3
			c1.1,2.9,3.9,4.8,7,4.8h180c3.1,0,5.9-1.9,7-4.8c1.1-2.9,0.3-6.2-2-8.3L128.2,100z"/>
		<path fill="#0000FF" d="M191,172.4c0.1,0,0.1,0,0.2,0c0.7-0.1,1.3-0.3,1.9-0.6c0.1,0,0.1-0.1,0.2-0.1c0.3-0.2,0.6-0.3,0.9-0.5
			c0,0,0,0,0.1-0.1c0.3-0.2,0.5-0.4,0.7-0.6c0.1,0,0.1-0.1,0.2-0.1c0.2-0.2,0.5-0.5,0.7-0.7c0,0,0.1-0.1,0.1-0.1
			c0.2-0.2,0.4-0.5,0.5-0.8c0,0,0-0.1,0.1-0.1c0.2-0.3,0.3-0.6,0.4-0.9c0-0.1,0-0.1,0.1-0.2c0.1-0.3,0.2-0.7,0.3-1c0,0,0,0,0,0
			c0.1-0.3,0.1-0.7,0.1-1c0-0.1,0-0.2,0-0.3c0.1-2.2-0.8-4.4-2.5-5.9l-12.5-11.1v9.2h-12.2H29.7H17.5v-9.2L5,159.4
			c-1.7,1.5-2.6,3.7-2.5,5.9c0,0.1,0,0.2,0,0.3c0,0.3,0.1,0.7,0.1,1c0,0,0,0,0,0c0.1,0.3,0.2,0.7,0.3,1c0,0.1,0,0.1,0.1,0.2
			c0.1,0.3,0.3,0.6,0.4,0.9c0,0,0.1,0.1,0.1,0.1c0.2,0.3,0.3,0.5,0.5,0.8c0,0,0.1,0.1,0.1,0.1c0.2,0.3,0.4,0.5,0.7,0.7
			c0.1,0,0.1,0.1,0.2,0.1c0.2,0.2,0.5,0.4,0.7,0.6c0,0,0,0,0.1,0.1c0.3,0.2,0.6,0.4,0.9,0.5c0.1,0,0.1,0.1,0.2,0.1
			c0.6,0.3,1.3,0.5,1.9,0.6c0.1,0,0.1,0,0.2,0c0.3,0,0.7,0.1,1,0.1c0,0,0,0,0,0h180C190.4,172.5,190.7,172.5,191,172.4z"/>
	</g>
	<g>
		<path fill="#0000FF" d="M95,120.6c1.4,1.3,3.2,1.9,5,1.9s3.6-0.6,5-1.9l11.9-10.6l11.3-10L195,40.6c2.3-2.1,3.1-5.4,2-8.3
			c-1.1-2.9-3.9-4.8-7-4.8H10c-3.1,0-5.9,1.9-7,4.8c-1.1,2.9-0.3,6.2,2,8.3L71.8,100l11.3,10L95,120.6z M29.7,42.5h140.5L116.9,90
			l-11.3,10l-5.6,5l-5.6-5L83.1,90L29.7,42.5z"/>
		<g>
			<path fill="#0000FF" d="M195,40.6c1.7-1.5,2.6-3.7,2.5-5.9c0-0.1,0-0.2,0-0.3c0-0.3-0.1-0.7-0.1-1c0,0,0,0,0,0
				c-0.1-0.3-0.2-0.7-0.3-1c0-0.1,0-0.1-0.1-0.2c-0.1-0.3-0.3-0.6-0.4-0.9c0,0-0.1-0.1-0.1-0.1c-0.2-0.3-0.3-0.5-0.5-0.8
				c0,0-0.1-0.1-0.1-0.1c-0.2-0.3-0.4-0.5-0.7-0.7c-0.1,0-0.1-0.1-0.2-0.1c-0.2-0.2-0.5-0.4-0.7-0.6c0,0,0,0-0.1-0.1
				c-0.3-0.2-0.6-0.4-0.9-0.5c-0.1,0-0.1-0.1-0.2-0.1c-0.6-0.3-1.3-0.5-1.9-0.6c-0.1,0-0.1,0-0.2,0c-0.3,0-0.7-0.1-1-0.1H10
				c0,0,0,0,0,0c-0.3,0-0.7,0-1,0.1c-0.1,0-0.2,0-0.2,0c-0.7,0.1-1.3,0.3-1.9,0.6c-0.1,0-0.1,0.1-0.2,0.1c-0.3,0.2-0.6,0.3-0.9,0.5
				c0,0-0.1,0-0.1,0.1C5.4,29,5.2,29.2,5,29.4c-0.1,0-0.1,0.1-0.2,0.1c-0.2,0.2-0.5,0.5-0.7,0.7c0,0-0.1,0.1-0.1,0.1
				c-0.2,0.2-0.4,0.5-0.5,0.7c0,0-0.1,0.1-0.1,0.1c-0.2,0.3-0.3,0.6-0.4,0.9c0,0.1,0,0.1-0.1,0.2c-0.1,0.3-0.2,0.6-0.3,1
				c0,0,0,0,0,0.1c-0.1,0.3-0.1,0.7-0.1,1c0,0.1,0,0.2,0,0.3c-0.1,2.2,0.8,4.4,2.5,5.9l12.5,11.1v-9.2h12.2h140.5h12.2v9.2L195,40.6
				z"/>
			<polygon fill="#0000FF" points="182.5,62.4 182.5,137.6 197.5,150.9 197.5,49.1 			"/>
			<polygon fill="#0000FF" points="2.5,49.1 2.5,150.9 17.5,137.6 17.5,62.4 			"/>
		</g>
	</g>
</g>
</svg>
