<?xml version="1.0" encoding="utf-8"?>
<!-- Generator: Adobe Illustrator 18.0.0, SVG Export Plug-In . SVG Version: 6.00 Build 0)  -->
<!DOCTYPE svg PUBLIC "-//W3C//DTD SVG 1.1//EN" "http://www.w3.org/Graphics/SVG/1.1/DTD/svg11.dtd">
<svg version="1.1" id="Layer_1" xmlns="http://www.w3.org/2000/svg" xmlns:xlink="http://www.w3.org/1999/xlink" x="0px" y="0px"
	 viewBox="0 0 200 200" enable-background="new 0 0 200 200" xml:space="preserve">
<g>
	<path fill="#0000FF" d="M165,67.5H35c-4.1,0-7.5-3.4-7.5-7.5s3.4-7.5,7.5-7.5h130c4.1,0,7.5,3.4,7.5,7.5S169.1,67.5,165,67.5z"/>
	<path fill="#0000FF" d="M155,187.5H45c-4.1,0-7.5-3.4-7.5-7.5s3.4-7.5,7.5-7.5h110c4.1,0,7.5,3.4,7.5,7.5S159.1,187.5,155,187.5z"
		/>
	<path fill="#0000FF" d="M145,27.5H55c-4.1,0-7.5-3.4-7.5-7.5s3.4-7.5,7.5-7.5h90c4.1,0,7.5,3.4,7.5,7.5S149.1,27.5,145,27.5z"/>
	<path fill="#0000FF" d="M175,147.5H25c-4.1,0-7.5-3.4-7.5-7.5s3.4-7.5,7.5-7.5h150c4.1,0,7.5,3.4,7.5,7.5S179.1,147.5,175,147.5z"
		/>
	<path fill="#0000FF" d="M155,107.5H45c-4.1,0-7.5-3.4-7.5-7.5s3.4-7.5,7.5-7.5h110c4.1,0,7.5,3.4,7.5,7.5S159.1,107.5,155,107.5z"
		/>
</g>
</svg>
