<?xml version="1.0" encoding="utf-8"?>
<!-- Generator: Adobe Illustrator 18.0.0, SVG Export Plug-In . SVG Version: 6.00 Build 0)  -->
<!DOCTYPE svg PUBLIC "-//W3C//DTD SVG 1.1//EN" "http://www.w3.org/Graphics/SVG/1.1/DTD/svg11.dtd">
<svg version="1.1" id="Layer_1" xmlns="http://www.w3.org/2000/svg" xmlns:xlink="http://www.w3.org/1999/xlink" x="0px" y="0px"
	 viewBox="0 0 200 200" enable-background="new 0 0 200 200" xml:space="preserve">
<g>
	<g>
		<path fill="#0000FF" d="M188.2,188.2c-3.1,3.1-8.2,3.1-11.3,0l-41.3-41.3l11.3-11.3l41.3,41.3C191.4,180,191.4,185.1,188.2,188.2z
			"/>
	</g>
	<path fill="#0000FF" d="M81.9,154.4c-40,0-72.5-32.5-72.5-72.5S41.9,9.4,81.9,9.4s72.5,32.5,72.5,72.5S121.9,154.4,81.9,154.4z
		 M81.9,24.4c-31.7,0-57.5,25.8-57.5,57.5s25.8,57.5,57.5,57.5s57.5-25.8,57.5-57.5S113.6,24.4,81.9,24.4z"/>
</g>
</svg>
